<svg id="behance" width="101" height="100" viewBox="0 0 101 100" fill="none" xmlns="http://www.w3.org/2000/svg">
<path d="M42.4406 58.2469C42.4406 62.554 39.3156 63.9154 35.4763 63.9154H25.4094V52.1098H35.6772C39.829 52.1321 42.4406 53.8505 42.4406 58.2469ZM40.7219 39.8802C40.7219 35.9301 37.6638 34.9928 34.271 34.9928H25.4317V44.9907H34.9629C38.3335 44.9907 40.7219 43.5178 40.7219 39.8802ZM70.2531 45.0577C66.1683 45.0577 63.4451 47.6018 63.1772 51.6858H77.0612C76.6817 47.5572 74.5388 45.0577 70.2531 45.0577ZM100.811 10.7122V89.2672C100.811 95.1812 96.012 99.9793 90.0969 99.9793H11.5254C5.61026 99.9793 0.811157 95.1812 0.811157 89.2672V10.7122C0.811157 4.79823 5.61026 0.00012207 11.5254 0.00012207H90.0969C96.012 0.00012207 100.811 4.79823 100.811 10.7122ZM61.4585 34.1448H78.8245V29.9269H61.4585V34.1448ZM51.8603 58.7602C51.8603 53.3818 49.3156 48.74 44.0478 47.2447C47.8871 45.4148 49.896 43.2947 49.896 38.9875C49.896 30.4625 43.5344 28.3871 36.1906 28.3871H15.9897V71.2353H36.771C44.5612 71.1906 51.8603 67.4637 51.8603 58.7602ZM85.6326 55.4573C85.6326 46.2851 80.2531 38.6305 70.5433 38.6305C61.079 38.6305 54.6728 45.7272 54.6728 55.0556C54.6728 64.7188 60.7665 71.3469 70.5433 71.3469C77.954 71.3469 82.7531 68.0217 85.0745 60.9026H77.5522C76.7263 63.5583 73.4004 64.9419 70.8112 64.9419C65.8112 64.9419 63.1996 62.0184 63.1996 57.0641H85.5656C85.5879 56.5508 85.6326 55.9929 85.6326 55.4573Z" fill="white"/>
</svg>
