<svg id="codepen" width="101" height="100" viewBox="0 0 101 100" fill="none" xmlns="http://www.w3.org/2000/svg">
<path d="M98.9739 31.1855L53.2709 0.723118C51.7109 -0.236641 50.0461 -0.245428 48.4719 0.723118L2.76884 31.1855C1.59697 31.9663 0.871582 33.3614 0.871582 34.756V65.2181C0.871582 66.613 1.59697 68.0078 2.76904 68.7889L48.4721 99.2555C50.032 100.215 51.6969 100.224 53.2711 99.2555L98.9741 68.7889C100.146 68.008 100.872 66.613 100.872 65.2181V34.756C100.872 33.3614 100.146 31.9663 98.9739 31.1855ZM55.1684 12.3275L88.8179 34.756L73.8068 44.7986L55.1684 32.3569V12.3275ZM46.5746 12.3275V32.3569L27.9362 44.7986L12.9251 34.756L46.5746 12.3275ZM9.46532 42.79L20.2354 49.9872L9.46532 57.1843V42.79ZM46.5746 87.6468L12.9251 65.2183L27.9362 55.1757L46.5746 67.6174V87.6468ZM50.8715 60.1413L35.6928 49.9872L50.8715 39.833L66.0502 49.9872L50.8715 60.1413ZM55.1684 87.6468V67.6174L73.8068 55.1757L88.8179 65.2183L55.1684 87.6468ZM92.2777 57.1843L81.5076 49.9872L92.2777 42.79V57.1843Z" fill="white"/>
</svg>
