<svg id="twitter" width="100" height="82" viewBox="0 0 100 82" fill="none" xmlns="http://www.w3.org/2000/svg">
<path d="M89.7211 20.2369C89.7845 21.125 89.7845 22.0133 89.7845 22.9014C89.7845 49.9896 69.1628 81.2015 31.4722 81.2015C19.8604 81.2015 9.07367 77.8391 0 72.003C1.64981 72.1932 3.23595 72.2567 4.94924 72.2567C14.5303 72.2567 23.3503 69.0214 30.3935 63.5022C21.3833 63.3118 13.8325 57.4121 11.2309 49.2919C12.5 49.4821 13.769 49.609 15.1016 49.609C16.9417 49.609 18.7819 49.3551 20.495 48.9113C11.1041 47.008 4.06076 38.761 4.06076 28.8011V28.5475C6.78909 30.07 9.96195 31.0216 13.3247 31.1483C7.80433 27.4688 4.18771 21.1884 4.18771 14.0833C4.18771 10.277 5.20275 6.78787 6.97952 3.74279C17.0684 16.1768 32.2335 24.2968 49.2385 25.1851C48.9213 23.6625 48.7309 22.0767 48.7309 20.4907C48.7309 9.19851 57.868 0 69.2259 0C75.1269 0 80.4568 2.4741 84.2005 6.47075C88.8324 5.58265 93.274 3.86972 97.2082 1.52254C95.6852 6.28055 92.4492 10.2772 88.198 12.8146C92.3224 12.3707 96.3199 11.2286 100 9.64275C97.2086 13.7027 93.7185 17.3185 89.7211 20.2369Z" fill="white"/>
</svg>
