<svg id="github" width="101" height="98" viewBox="0 0 101 98" fill="none" xmlns="http://www.w3.org/2000/svg">
<path d="M33.8199 78.4917C33.8199 78.8949 33.3562 79.2174 32.7715 79.2174C32.1062 79.2778 31.6425 78.9553 31.6425 78.4917C31.6425 78.0886 32.1062 77.7661 32.6909 77.7661C33.2957 77.7056 33.8199 78.0281 33.8199 78.4917ZM27.5497 77.5846C27.4086 77.9878 27.8118 78.4514 28.4167 78.5723C28.9409 78.7739 29.5457 78.5723 29.6667 78.1692C29.7876 77.7661 29.4046 77.3025 28.7997 77.121C28.2755 76.9799 27.6909 77.1815 27.5497 77.5846ZM36.461 77.242C35.8763 77.3831 35.4731 77.7661 35.5336 78.2297C35.5941 78.6328 36.1183 78.8949 36.7231 78.7538C37.3078 78.6127 37.711 78.2297 37.6505 77.8265C37.5901 77.4436 37.0457 77.1815 36.461 77.242ZM49.7272 0C21.7634 0 0.372314 21.2254 0.372314 49.1833C0.372314 71.5375 14.4449 90.6666 34.5457 97.3991C37.1263 97.8627 38.0336 96.2703 38.0336 94.9601C38.0336 93.7103 37.9731 86.8166 37.9731 82.5836C37.9731 82.5836 23.8602 85.6072 20.8965 76.5768C20.8965 76.5768 18.5981 70.7111 15.2917 69.1993C15.2917 69.1993 10.6747 66.0346 15.6143 66.0951C15.6143 66.0951 20.6344 66.4983 23.3965 71.2956C27.8118 79.0763 35.211 76.8388 38.0941 75.5085C38.5578 72.2833 39.8683 70.0459 41.3199 68.7155C30.0497 67.4658 18.6788 65.8331 18.6788 46.4419C18.6788 40.8987 20.211 38.1171 23.4368 34.5694C22.9126 33.2592 21.1989 27.8571 23.961 20.8827C28.1747 19.5725 37.8723 26.3252 37.8723 26.3252C41.9046 25.1964 46.2393 24.6118 50.5336 24.6118C54.828 24.6118 59.1626 25.1964 63.1949 26.3252C63.1949 26.3252 72.8925 19.5524 77.1062 20.8827C79.8683 27.8773 78.1546 33.2592 77.6304 34.5694C80.8562 38.1372 82.832 40.9189 82.832 46.4419C82.832 65.8935 70.957 67.4456 59.6868 68.7155C61.5417 70.3079 63.1143 73.3315 63.1143 78.0684C63.1143 84.8614 63.0538 93.2669 63.0538 94.9197C63.0538 96.23 63.9812 97.8224 66.5417 97.3588C86.703 90.6666 100.372 71.5375 100.372 49.1833C100.372 21.2254 77.6909 0 49.7272 0ZM19.9691 69.5218C19.707 69.7234 19.7675 70.187 20.1102 70.57C20.4328 70.8925 20.8965 71.0336 21.1586 70.7716C21.4207 70.57 21.3602 70.1064 21.0175 69.7234C20.6949 69.4009 20.2312 69.2598 19.9691 69.5218ZM17.7917 67.8891C17.6505 68.1511 17.8522 68.4736 18.2554 68.6752C18.578 68.8768 18.9812 68.8163 19.1223 68.5341C19.2634 68.2721 19.0618 67.9496 18.6586 67.748C18.2554 67.627 17.9328 67.6875 17.7917 67.8891ZM24.3239 75.065C24.0013 75.3271 24.1223 75.9318 24.586 76.3148C25.0497 76.7784 25.6344 76.8388 25.8965 76.5163C26.1586 76.2543 26.0376 75.6496 25.6344 75.2666C25.1909 74.803 24.586 74.7425 24.3239 75.065ZM22.0255 72.1019C21.703 72.3035 21.703 72.8276 22.0255 73.2912C22.3481 73.7548 22.8925 73.9564 23.1546 73.7548C23.4772 73.4928 23.4772 72.9687 23.1546 72.5051C22.8723 72.0415 22.3481 71.8399 22.0255 72.1019Z" fill="white"/>
</svg>
