<svg id="linkedin" width="101" height="100" viewBox="0 0 101 100" fill="none" xmlns="http://www.w3.org/2000/svg">
<path d="M93.5409 0.00012207H7.80425C3.87568 0.00012207 0.683716 3.23606 0.683716 7.20845V92.771C0.683716 96.7434 3.87568 99.9794 7.80425 99.9794H93.5409C97.4694 99.9794 100.684 96.7434 100.684 92.771V7.20845C100.684 3.23606 97.4694 0.00012207 93.5409 0.00012207ZM30.9069 85.6966H16.0855V37.9833H30.9293V85.6966H30.9069ZM23.4962 31.4668C18.7418 31.4668 14.9025 27.606 14.9025 22.8748C14.9025 18.1437 18.7418 14.2829 23.4962 14.2829C28.2284 14.2829 32.09 18.1437 32.09 22.8748C32.09 27.6283 28.2507 31.4668 23.4962 31.4668ZM86.465 85.6966H71.6435V62.4871C71.6435 56.9526 71.5319 49.8335 63.9426 49.8335C56.2194 49.8335 55.0364 55.8591 55.0364 62.0854V85.6966H40.215V37.9833H54.4337V44.4998H54.6346C56.6212 40.7506 61.465 36.8005 68.6748 36.8005C83.6748 36.8005 86.465 46.6869 86.465 59.5413V85.6966Z" fill="white"/>
</svg>
